{
.appVersion = "3151";
.formatVersion = 3;
DisplayStrings = (
"
ABCDEF
GHIJKLM
NOPQRST
UVWXYZ
hesion
MAMBO IS INSPIRED
BY COWRY SHELLS

",
"",
a,
A
);
date = "2023-11-07 14:50:43 +0000";
familyName = Mambo;
fontMaster = (
{
guides = (
{
pos = (0,600);
},
{
pos = (-1,424);
},
{
pos = (-2,381);
},
{
pos = (0,493);
},
{
pos = (-1,546);
}
);
id = m01;
metricValues = (
{
over = 20;
pos = 900;
},
{
over = 20;
pos = 800;
},
{
over = 20;
pos = 600;
},
{
over = -20;
},
{
over = -20;
pos = -200;
},
{
over = -16;
}
);
name = Regular;
userData = {
GSCornerRadius = 180;
};
}
);
glyphs = (
{
glyphname = A;
lastChange = "2023-11-29 09:56:53 +0000";
layers = (
{
layerId = m01;
shapes = (
{
closed = 1;
nodes = (
(390,819,cs),
(214,817,o),
(35,288,o),
(1,42,cs),
(-3,15,o),
(11,0,o),
(38,0,cs),
(329,0,ls),
(355,0,o),
(369,13,o),
(369,40,cs),
(370,245,o),
(371,733,o),
(390,733,cs),
(401,733,o),
(409,246,o),
(412,39,cs),
(412,13,o),
(427,0,o),
(452,0,cs),
(742,0,ls),
(769,0,o),
(783,15,o),
(780,42,cs),
(746,289,o),
(567,819,o)
);
},
{
closed = 1;
nodes = (
(369,406,l),
(405,406,l),
(405,443,l),
(369,443,l)
);
}
);
width = 780;
}
);
unicode = 65;
},
{
glyphname = B;
lastChange = "2023-11-29 09:50:11 +0000";
layers = (
{
layerId = m01;
shapes = (
{
closed = 1;
nodes = (
(341,609,o),
(266,670,o),
(172,742,c),
(279,720,o),
(392,620,o),
(409,563,cs),
(411,557,o),
(408,555,o),
(405,557,cs)
);
},
{
closed = 1;
nodes = (
(371,54,o),
(360,57,o),
(358,63,cs),
(190,705,l),
(295,557,o),
(392,225,o),
(372,60,cs)
);
},
{
closed = 1;
nodes = (
(470,473,o),
(616,472,o),
(616,634,cs),
(616,812,o),
(381,799,o),
(381,799,c),
(70,799,ls),
(44,799,o),
(30,784,o),
(30,758,cs),
(30,40,ls),
(30,13,o),
(44,0,o),
(70,0,cs),
(533,0,ls),
(577,0,o),
(719,44,o),
(719,230,cs),
(719,417,o),
(583,451,o),
(536,461,cs)
);
}
);
width = 739;
}
);
unicode = 66;
},
{
glyphname = C;
lastChange = "2023-11-29 07:05:16 +0000";
layers = (
{
layerId = m01;
shapes = (
{
closed = 1;
nodes = (
(429,383,ls),
(403,383,o),
(389,368,o),
(389,342,cs),
(386,184,o),
(377,65,o),
(366,65,cs),
(354,65,o),
(344,216,o),
(344,401,cs),
(344,586,o),
(354,737,o),
(366,737,cs),
(377,737,o),
(386,618,o),
(389,461,cs),
(389,433,o),
(403,419,o),
(429,419,cs),
(720,419,ls),
(747,419,o),
(762,434,o),
(758,462,cs),
(728,665,o),
(546,821,o),
(367,821,cs),
(170,821,o),
(-30,631,o),
(-30,401,cs),
(-30,169,o),
(170,-19,o),
(367,-19,cs),
(547,-19,o),
(728,136,o),
(758,340,cs),
(762,367,o),
(746,383,o),
(720,383,cs)
);
}
);
width = 789;
}
);
unicode = 67;
},
{
glyphname = D;
lastChange = "2023-11-29 08:33:25 +0000";
layers = (
{
layerId = m01;
shapes = (
{
closed = 1;
nodes = (
(474,74,o),
(463,77,o),
(461,84,cs),
(293,724,l),
(398,577,o),
(494,246,o),
(475,81,cs)
);
},
{
closed = 1;
nodes = (
(70,800,ls),
(44,800,o),
(30,786,o),
(30,760,cs),
(30,41,ls),
(30,15,o),
(44,1,o),
(70,1,cs),
(376,1,ls),
(568,1,o),
(740,178,o),
(740,399,cs),
(740,619,o),
(547,797,o),
(355,798,cs)
);
}
);
width = 770;
}
);
unicode = 68;
},
{
glyphname = E;
lastChange = "2023-11-29 07:58:23 +0000";
layers = (
{
layerId = m01;
shapes = (
{
closed = 1;
nodes = (
(604,0,ls),
(617,0,o),
(627,14,o),
(627,29,cs),
(627,261,ls),
(627,284,o),
(613,299,o),
(597,294,cs),
(80,126,l),
(205,175,o),
(388,264,o),
(387,401,c),
(387,536,o),
(205,615,o),
(80,674,c),
(597,506,ls),
(613,501,o),
(627,516,o),
(627,539,cs),
(627,771,ls),
(627,786,o),
(617,800,o),
(604,800,cs),
(71,800,ls),
(45,800,o),
(31,786,o),
(31,760,cs),
(32,690,ls),
(35,514,o),
(7,460,o),
(104,401,c),
(7,340,o),
(35,286,o),
(32,110,cs),
(31,40,ls),
(31,14,o),
(45,0,o),
(71,0,cs)
);
}
);
width = 657;
}
);
unicode = 69;
},
{
glyphname = F;
lastChange = "2023-11-29 07:03:34 +0000";
layers = (
{
layerId = m01;
shapes = (
{
closed = 1;
nodes = (
(406,360,l),
(406,396,l),
(201,396,l),
(201,360,l)
);
},
{
closed = 1;
nodes = (
(613,501,o),
(627,516,o),
(627,540,cs),
(627,771,ls),
(627,786,o),
(617,800,o),
(604,800,cs),
(71,800,ls),
(45,800,o),
(31,786,o),
(31,760,cs),
(31,690,l),
(32,690,l),
(597,507,ls)
);
},
{
closed = 1;
nodes = (
(30,31,ls),
(30,14,o),
(44,0,o),
(61,0,cs),
(302,0,ls),
(325,0,o),
(341,18,o),
(335,41,cs),
(180,595,ls),
(175,613,o),
(164,626,o),
(147,636,cs),
(30,703,l)
);
}
);
width = 657;
}
);
unicode = 70;
},
{
glyphname = G;
lastChange = "2023-11-29 09:48:54 +0000";
layers = (
{
layerId = m01;
shapes = (
{
closed = 1;
nodes = (
(519,386,ls),
(493,386,o),
(449,371,o),
(449,344,cs),
(446,188,o),
(437,71,o),
(426,71,cs),
(414,71,o),
(404,220,o),
(404,404,cs),
(404,587,o),
(414,736,o),
(426,736,cs),
(437,736,o),
(446,689,o),
(449,533,cs),
(449,505,o),
(463,491,o),
(489,491,cs),
(780,491,ls),
(807,491,o),
(822,506,o),
(818,534,cs),
(788,734,o),
(597,819,o),
(418,819,cs),
(221,819,o),
(30,633,o),
(30,404,cs),
(30,174,o),
(240,-12,o),
(437,-12,cs),
(617,-12,o),
(788,141,o),
(818,343,cs),
(822,370,o),
(806,386,o),
(780,386,cs)
);
},
{
closed = 1;
nodes = (
(382,341,l),
(788,341,l),
(788,386,l),
(382,386,l)
);
}
);
width = 849;
}
);
unicode = 71;
},
{
glyphname = H;
lastChange = "2023-11-29 08:13:50 +0000";
layers = (
{
layerId = m01;
shapes = (
{
closed = 1;
nodes = (
(20,40,ls),
(20,14,o),
(34,0,o),
(60,0,cs),
(302,0,ls),
(328,0,o),
(341,14,o),
(342,40,cs),
(355,364,ls),
(356,390,o),
(363,404,o),
(378,404,cs),
(393,404,o),
(394,390,o),
(395,364,cs),
(408,42,ls),
(409,16,o),
(422,2,o),
(448,2,cs),
(690,2,ls),
(716,2,o),
(730,16,o),
(730,42,cs),
(730,760,ls),
(730,786,o),
(716,800,o),
(690,800,cs),
(448,800,ls),
(422,800,o),
(409,786,o),
(408,760,cs),
(398,480,ls),
(397,454,o),
(390,440,o),
(375,440,cs),
(360,440,o),
(353,454,o),
(352,480,cs),
(342,758,ls),
(341,784,o),
(328,798,o),
(302,798,cs),
(60,798,ls),
(34,798,o),
(20,784,o),
(20,758,cs)
);
}
);
width = 780;
}
);
unicode = 72;
},
{
glyphname = I;
lastChange = "2023-11-29 09:58:18 +0000";
layers = (
{
layerId = m01;
shapes = (
{
closed = 1;
nodes = (
(190,800,ls),
(149,800,o),
(119,787,o),
(91,757,cs),
(42,703,ls),
(34,693,o),
(30,684,o),
(30,671,cs),
(30,53,ls),
(30,19,o),
(44,0,o),
(70,0,cs),
(274,0,ls),
(300,0,o),
(314,19,o),
(314,53,cs),
(314,772,ls),
(314,789,o),
(307,799,o),
(294,799,cs)
);
}
);
width = 344;
}
);
unicode = 73;
},
{
glyphname = J;
lastChange = "2023-11-29 07:04:11 +0000";
layers = (
{
layerId = m01;
shapes = (
{
closed = 1;
nodes = (
(353,800,ls),
(325,800,o),
(312,783,o),
(318,755,cs),
(469,64,l),
(458,64,o),
(409,198,o),
(370,350,cs),
(363,378,o),
(356,394,o),
(330,394,cs),
(69,394,ls),
(43,394,o),
(27,378,o),
(31,348,cs),
(61,139,o),
(192,-20,o),
(424,-20,cs),
(541,-20,o),
(636,78,o),
(636,199,cs),
(636,759,ls),
(636,786,o),
(622,800,o),
(596,800,cs)
);
}
);
width = 666;
}
);
unicode = 74;
},
{
glyphname = K;
lastChange = "2023-11-29 07:04:35 +0000";
layers = (
{
layerId = m01;
shapes = (
{
closed = 1;
nodes = (
(594,556,o),
(690,679,o),
(745,761,cs),
(759,783,o),
(743,800,o),
(711,800,cs),
(437,800,ls),
(412,800,o),
(398,785,o),
(397,760,cs),
(395,708,o),
(391,638,o),
(389,592,cs),
(387,567,o),
(382,553,o),
(375,553,cs),
(367,553,o),
(362,568,o),
(362,593,cs),
(362,760,ls),
(362,785,o),
(348,800,o),
(322,800,cs),
(80,800,ls),
(54,800,o),
(40,785,o),
(40,760,cs),
(40,40,ls),
(40,14,o),
(54,0,o),
(80,0,cs),
(322,0,ls),
(348,0,o),
(362,14,o),
(362,40,cs),
(362,478,ls),
(362,504,o),
(367,518,o),
(375,518,cs),
(383,518,o),
(388,504,o),
(389,479,cs),
(405,39,ls),
(406,14,o),
(420,0,o),
(445,0,cs),
(735,0,ls),
(763,0,o),
(778,16,o),
(770,45,cs),
(723,198,o),
(611,447,o),
(489,524,c)
);
}
);
width = 808;
}
);
unicode = 75;
},
{
glyphname = L;
lastChange = "2023-11-29 08:17:15 +0000";
layers = (
{
layerId = m01;
shapes = (
{
closed = 1;
nodes = (
(31,111,l),
(30,111,l),
(30,41,ls),
(30,15,o),
(44,1,o),
(70,1,cs),
(603,1,ls),
(616,1,o),
(626,15,o),
(626,30,cs),
(626,261,ls),
(626,284,o),
(612,299,o),
(596,294,cs)
);
},
{
closed = 1;
nodes = (
(147,164,ls),
(165,174,o),
(175,187,o),
(180,206,cs),
(335,760,ls),
(341,783,o),
(325,801,o),
(302,801,cs),
(61,801,ls),
(44,801,o),
(30,786,o),
(30,769,cs),
(30,97,l)
);
}
);
width = 657;
}
);
unicode = 76;
},
{
glyphname = M;
lastChange = "2023-11-29 09:46:07 +0000";
layers = (
{
layerId = m01;
shapes = (
{
closed = 1;
nodes = (
(70,821,ls),
(44,821,o),
(30,807,o),
(30,781,cs),
(35,31,ls),
(35,14,o),
(49,0,o),
(66,0,cs),
(307,0,ls),
(330,0,o),
(346,18,o),
(340,41,cs),
(166,743,l),
(273,611,o),
(309,0,o),
(451,0,c),
(451,493,l),
(390,674,ls),
(356,774,o),
(291,821,o),
(186,821,cs)
);
},
{
closed = 1;
nodes = (
(611,821,o),
(545,774,o),
(512,674,cs),
(451,493,l),
(451,0,l),
(593,0,o),
(629,611,o),
(736,743,c),
(562,41,ls),
(556,18,o),
(572,0,o),
(595,0,cs),
(836,0,ls),
(853,0,o),
(867,14,o),
(867,31,cs),
(872,781,ls),
(872,807,o),
(858,821,o),
(832,821,cs),
(716,821,ls)
);
}
);
width = 892;
}
);
unicode = 77;
},
{
glyphname = N;
lastChange = "2023-11-29 09:07:45 +0000";
layers = (
{
layerId = m01;
shapes = (
{
closed = 1;
nodes = (
(30,31,ls),
(30,14,o),
(44,0,o),
(61,0,cs),
(302,0,ls),
(325,0,o),
(341,18,o),
(335,41,cs),
(161,735,l),
(218,656,o),
(313,340,o),
(358,177,cs),
(416,-32,o),
(428,1,o),
(685,-2,cs),
(711,-2,o),
(725,12,o),
(725,38,cs),
(725,767,ls),
(725,784,o),
(711,798,o),
(694,798,cs),
(453,798,ls),
(430,798,o),
(414,780,o),
(420,757,cs),
(594,62,l),
(528,177,o),
(500,354,o),
(452,495,cs),
(409,622,o),
(358,711,o),
(306,768,c),
(270,807,o),
(218,798,o),
(149,799,cs),
(70,800,ls),
(44,800,o),
(30,786,o),
(30,760,cs)
);
}
);
width = 755;
}
);
unicode = 78;
},
{
glyphname = O;
lastChange = "2023-11-29 09:49:51 +0000";
layers = (
{
layerId = m01;
shapes = (
{
closed = 1;
nodes = (
(408,65,o),
(397,215,o),
(397,399,c),
(397,583,o),
(408,732,o),
(421,732,c),
(434,732,o),
(445,583,o),
(445,399,c),
(445,215,o),
(434,65,o),
(421,65,c)
);
},
{
closed = 1;
nodes = (
(212,816,o),
(0,629,o),
(0,399,c),
(0,167,o),
(212,-19,o),
(422,-19,c),
(631,-19,o),
(842,167,o),
(842,399,c),
(842,629,o),
(631,816,o),
(422,816,c)
);
}
);
width = 842;
}
);
unicode = 79;
},
{
glyphname = P;
lastChange = "2023-11-29 09:38:32 +0000";
layers = (
{
layerId = m01;
shapes = (
{
closed = 1;
nodes = (
(358,551,o),
(286,613,o),
(197,688,c),
(298,666,o),
(404,561,o),
(423,504,cs),
(425,497,o),
(422,494,o),
(419,497,cs)
);
},
{
closed = 1;
nodes = (
(70,800,ls),
(44,800,o),
(30,786,o),
(30,760,cs),
(30,40,ls),
(30,14,o),
(44,0,o),
(70,0,cs),
(289,0,ls),
(317,0,o),
(330,18,o),
(323,45,cs),
(202,486,l),
(202,573,o),
(348,374,o),
(460,384,cs),
(577,394,o),
(666,479,o),
(666,592,cs),
(665,707,o),
(571,800,o),
(456,800,cs)
);
}
);
width = 666;
}
);
unicode = 80;
},
{
glyphname = Q;
lastChange = "2023-11-29 09:38:52 +0000";
layers = (
{
layerId = m01;
shapes = (
{
closed = 1;
nodes = (
(795,-13,ls),
(795,15,o),
(778,29,o),
(751,23,cs),
(462,-38,l),
(531,-5,l),
(676,53,o),
(793,225,o),
(793,400,cs),
(793,626,o),
(594,810,o),
(397,810,cs),
(200,810,o),
(0,626,o),
(0,400,cs),
(0,173,o),
(200,-10,o),
(397,-10,cs),
(413,-10,o),
(428,-9,o),
(444,-7,c),
(386,-52,ls),
(331,-95,o),
(374,-152,o),
(410,-152,cs),
(755,-152,ls),
(781,-152,o),
(795,-138,o),
(795,-112,cs)
);
},
{
closed = 1;
nodes = (
(374,581,o),
(384,728,o),
(396,728,cs),
(409,728,o),
(419,581,o),
(419,400,cs),
(419,219,o),
(409,72,o),
(396,72,cs),
(384,72,o),
(374,219,o),
(374,400,cs)
);
}
);
width = 825;
}
);
unicode = 81;
},
{
glyphname = R;
lastChange = "2023-11-29 09:38:10 +0000";
layers = (
{
layerId = m01;
shapes = (
{
closed = 1;
nodes = (
(419,564,ls),
(420,559,o),
(416,557,o),
(413,559,cs),
(348,612,o),
(271,671,o),
(175,744,c),
(284,722,o),
(400,622,o),
(418,566,cs)
);
},
{
closed = 1;
nodes = (
(325,0,ls),
(353,0,o),
(367,17,o),
(360,44,cs),
(206,680,l),
(281,586,o),
(333,403,o),
(371,238,c),
(409,36,ls),
(413,11,o),
(429,0,o),
(453,0,cs),
(690,0,ls),
(719,0,o),
(732,18,o),
(721,46,cs),
(551,485,l),
(580,505,o),
(630,543,o),
(630,635,cs),
(630,812,o),
(389,800,o),
(389,800,c),
(70,800,ls),
(44,800,o),
(30,786,o),
(30,760,cs),
(30,40,ls),
(30,14,o),
(44,0,o),
(70,0,cs)
);
}
);
width = 665;
}
);
unicode = 82;
},
{
glyphname = S;
lastChange = "2023-11-29 07:07:09 +0000";
layers = (
{
layerId = m01;
shapes = (
{
closed = 1;
nodes = (
(581,438,o),
(502,453,o),
(444,466,cs),
(425,472,o),
(380,476,o),
(369,494,cs),
(340,541,o),
(353,763,o),
(361,763,cs),
(368,763,o),
(374,645,o),
(378,538,cs),
(379,509,o),
(393,496,o),
(418,496,cs),
(646,496,ls),
(674,496,o),
(690,513,o),
(681,541,cs),
(638,681,o),
(506,820,o),
(362,820,cs),
(241,820,o),
(104,718,o),
(57,600,cs),
(23,516,o),
(99,467,o),
(166,444,cs),
(227,420,o),
(292,415,o),
(353,391,cs),
(368,384,o),
(380,382,o),
(380,358,cs),
(380,134,o),
(373,43,o),
(362,43,cs),
(353,43,o),
(352,215,o),
(352,343,cs),
(352,372,o),
(338,386,o),
(312,386,cs),
(69,387,ls),
(43,387,o),
(26,372,o),
(31,343,cs),
(58,181,o),
(226,-19,o),
(362,-19,cs),
(452,-19,o),
(533,35,o),
(591,102,cs),
(646,163,o),
(714,269,o),
(665,356,cs),
(656,373,o),
(643,387,o),
(629,398,cs)
);
}
);
width = 714;
}
);
unicode = 83;
},
{
glyphname = T;
lastChange = "2023-11-29 09:22:57 +0000";
layers = (
{
layerId = m01;
shapes = (
{
closed = 1;
nodes = (
(732,681,l),
(733,681,l),
(733,751,ls),
(733,777,o),
(716,791,o),
(686,791,cs),
(58,791,ls),
(43,791,o),
(31,777,o),
(31,762,cs),
(31,531,ls),
(31,507,o),
(47,493,o),
(66,498,cs)
);
},
{
closed = 1;
nodes = (
(333,600,l),
(244,527,ls),
(236,520,o),
(232,513,o),
(232,503,cs),
(232,40,ls),
(232,14,o),
(246,0,o),
(272,0,cs),
(476,0,ls),
(502,0,o),
(516,14,o),
(516,40,cs),
(516,579,ls),
(516,592,o),
(509,599,o),
(496,599,cs)
);
}
);
width = 750;
}
);
unicode = 84;
},
{
glyphname = U;
lastChange = "2023-11-29 08:55:12 +0000";
layers = (
{
layerId = m01;
shapes = (
{
closed = 1;
nodes = (
(408,802,ls),
(382,802,o),
(368,788,o),
(368,761,cs),
(364,377,ls),
(362,213,o),
(356,77,o),
(345,62,c),
(335,77,o),
(329,213,o),
(327,377,cs),
(323,761,ls),
(323,788,o),
(309,802,o),
(283,802,cs),
(50,802,ls),
(24,802,o),
(10,788,o),
(10,761,cs),
(10,377,l),
(11,316,ls),
(15,98,o),
(165,-18,o),
(345,-19,cs),
(526,-20,o),
(672,98,o),
(679,316,cs),
(681,377,l),
(681,761,ls),
(681,788,o),
(667,802,o),
(641,802,cs)
);
}
);
width = 691;
}
);
unicode = 85;
},
{
glyphname = V;
lastChange = "2023-11-29 07:07:44 +0000";
layers = (
{
layerId = m01;
shapes = (
{
closed = 1;
nodes = (
(571,-18,o),
(750,508,o),
(784,756,cs),
(787,784,o),
(773,799,o),
(746,799,cs),
(456,799,ls),
(431,799,o),
(416,785,o),
(416,760,cs),
(413,551,o),
(405,59,o),
(394,59,cs),
(375,59,o),
(374,552,o),
(373,759,cs),
(373,785,o),
(359,799,o),
(333,799,cs),
(42,799,ls),
(15,799,o),
(1,784,o),
(5,756,cs),
(39,509,o),
(218,-16,o),
(394,-18,cs)
);
}
);
width = 787;
}
);
unicode = 86;
},
{
glyphname = W;
lastChange = "2023-11-29 09:02:22 +0000";
layers = (
{
layerId = m01;
shapes = (
{
closed = 1;
nodes = (
(546,799,l),
(404,799,o),
(368,188,o),
(261,56,c),
(435,758,ls),
(441,781,o),
(425,799,o),
(402,799,cs),
(61,799,ls),
(44,799,o),
(28,785,o),
(30,768,cs),
(125,27,ls),
(128,3,o),
(144,-10,o),
(168,-10,cs),
(383,-10,ls),
(406,-10,o),
(421,-1,o),
(430,21,cs),
(546,306,l)
);
},
{
closed = 1;
nodes = (
(662,23,ls),
(671,1,o),
(686,-8,o),
(709,-8,cs),
(924,-8,ls),
(948,-8,o),
(964,5,o),
(967,29,cs),
(1062,770,ls),
(1064,787,o),
(1048,801,o),
(1031,801,cs),
(690,801,ls),
(667,801,o),
(651,783,o),
(657,760,cs),
(831,58,l),
(724,190,o),
(688,801,o),
(546,801,c),
(546,308,l)
);
}
);
width = 1092;
}
);
unicode = 87;
},
{
glyphname = X;
lastChange = "2023-11-29 09:37:34 +0000";
layers = (
{
layerId = m01;
shapes = (
{
closed = 1;
nodes = (
(597,403,o),
(776,666,o),
(810,788,cs),
(813,802,o),
(799,809,o),
(772,809,cs),
(482,809,ls),
(457,809,o),
(442,802,o),
(442,789,cs),
(439,687,o),
(431,446,o),
(420,446,cs),
(401,446,o),
(400,687,o),
(399,789,cs),
(399,802,o),
(385,809,o),
(359,809,cs),
(68,809,ls),
(41,809,o),
(27,802,o),
(31,788,cs),
(65,667,o),
(244,404,o),
(420,403,cs)
);
},
{
closed = 1;
nodes = (
(244,405,o),
(65,142,o),
(31,21,cs),
(27,7,o),
(41,0,o),
(68,0,cs),
(359,0,ls),
(385,0,o),
(399,7,o),
(399,20,cs),
(400,122,o),
(401,363,o),
(420,363,cs),
(431,363,o),
(439,122,o),
(442,20,cs),
(442,7,o),
(457,0,o),
(482,0,cs),
(772,0,ls),
(799,0,o),
(813,7,o),
(810,21,cs),
(776,143,o),
(597,406,o),
(420,406,cs)
);
}
);
width = 810;
}
);
unicode = 88;
},
{
glyphname = Y;
lastChange = "2023-11-29 09:49:15 +0000";
layers = (
{
layerId = m01;
shapes = (
{
closed = 1;
nodes = (
(400,381,o),
(416,384,o),
(431,388,c),
(311,41,ls),
(303,18,o),
(321,0,o),
(344,0,cs),
(535,0,ls),
(552,0,o),
(562,14,o),
(566,31,cs),
(709,666,o),
(588,154,o),
(740,787,cs),
(744,805,o),
(725,809,o),
(706,809,cs),
(441,809,ls),
(419,809,o),
(405,802,o),
(405,788,cs),
(402,680,o),
(395,426,o),
(385,426,cs),
(368,426,o),
(367,680,o),
(366,788,cs),
(366,802,o),
(353,809,o),
(329,809,cs),
(64,809,ls),
(40,809,o),
(27,802,o),
(30,787,cs),
(61,659,o),
(65,382,o),
(385,381,cs)
);
}
);
width = 770;
}
);
unicode = 89;
},
{
glyphname = Z;
lastChange = "2023-11-29 07:47:15 +0000";
layers = (
{
layerId = m01;
shapes = (
{
closed = 1;
nodes = (
(70,800,l),
(48,800,o),
(30,782,o),
(30,760,c),
(30,522,l),
(30,494,o),
(48,480,o),
(75,488,c),
(587,635,l),
(590,636,o),
(592,631,o),
(588,630,c),
(61,406,l),
(40,397,o),
(30,382,o),
(30,360,c),
(30,40,l),
(30,18,o),
(48,0,o),
(70,0,c),
(643,0,l),
(665,0,o),
(683,18,o),
(683,40,c),
(683,277,l),
(683,305,o),
(665,319,o),
(638,311,c),
(131,165,l),
(127,164,o),
(125,170,o),
(128,171,c),
(652,398,l),
(673,407,o),
(683,422,o),
(683,444,c),
(683,760,l),
(683,782,o),
(665,800,o),
(643,800,c)
);
}
);
width = 713;
}
);
unicode = 90;
},
{
glyphname = e;
lastChange = "2023-11-29 06:48:46 +0000";
layers = (
{
layerId = m01;
shapes = (
{
closed = 1;
nodes = (
(339,277,ls),
(320,277,o),
(312,266,o),
(312,246,cs),
(310,131,o),
(305,43,o),
(297,43,cs),
(289,43,o),
(282,155,o),
(282,291,cs),
(282,427,o),
(289,539,o),
(297,539,cs),
(305,539,o),
(310,450,o),
(312,335,cs),
(312,314,o),
(320,304,o),
(339,304,cs),
(535,304,ls),
(554,304,o),
(564,315,o),
(560,337,cs),
(540,485,o),
(418,600,o),
(298,600,cs),
(165,600,o),
(30,460,o),
(30,291,cs),
(30,120,o),
(179,-12,o),
(298,-12,cs),
(406,-12,o),
(540,95,o),
(560,245,cs),
(564,265,o),
(553,277,o),
(535,277,cs)
);
},
{
closed = 1;
nodes = (
(227,304,l),
(373,304,l),
(373,338,l),
(227,338,l)
);
}
);
width = 591;
}
);
unicode = 101;
},
{
glyphname = h;
lastChange = "2023-11-29 06:48:36 +0000";
layers = (
{
layerId = m01;
shapes = (
{
closed = 1;
nodes = (
(241,0,ls),
(262,0,o),
(272,11,o),
(272,31,cs),
(273,183,o),
(275,487,o),
(286,487,cs),
(292,487,o),
(297,184,o),
(300,31,cs),
(300,11,o),
(312,0,o),
(331,0,cs),
(546,0,l),
(546,29,ls),
(546,194,o),
(404,544,o),
(286,544,cs),
(255,543,o),
(222,505,o),
(189,449,c),
(268,768,l),
(272,786,o),
(260,800,o),
(242,800,cs),
(55,800,ls),
(42,800,o),
(31,789,o),
(31,776,cs),
(30,31,ls),
(30,11,o),
(41,0,o),
(61,0,cs)
);
}
);
width = 536;
}
);
unicode = 104;
},
{
glyphname = i;
lastChange = "2023-11-29 08:48:20 +0000";
layers = (
{
layerId = m01;
shapes = (
{
closed = 1;
nodes = (
(23,32,ls),
(23,12,o),
(33,2,o),
(51,2,cs),
(231,2,ls),
(249,2,o),
(259,12,o),
(259,32,cs),
(259,570,ls),
(259,590,o),
(249,600,o),
(231,600,cs),
(51,600,ls),
(33,600,o),
(23,590,o),
(23,570,cs)
);
},
{
closed = 1;
nodes = (
(15,784,o),
(71,819,o),
(141,819,c),
(211,819,o),
(267,784,o),
(267,731,c),
(267,678,o),
(211,643,o),
(141,643,c),
(71,643,o),
(15,678,o),
(15,731,c)
);
}
);
width = 296;
}
);
unicode = 105;
},
{
glyphname = n;
lastChange = "2023-11-29 08:45:48 +0000";
layers = (
{
layerId = m01;
shapes = (
{
closed = 1;
nodes = (
(248,0,ls),
(274,0,o),
(288,14,o),
(288,40,cs),
(288,221,o),
(281,536,o),
(293,536,cs),
(299,536,o),
(314,221,o),
(318,40,cs),
(319,14,o),
(334,0,o),
(359,0,cs),
(571,0,ls),
(597,0,o),
(612,14,o),
(610,41,cs),
(599,176,o),
(550,395,o),
(482,507,cs),
(448,565,o),
(386,600,o),
(318,600,cs),
(85,600,ls),
(59,600,o),
(45,586,o),
(45,560,cs),
(44,40,ls),
(44,14,o),
(58,0,o),
(84,0,cs)
);
}
);
width = 753;
}
);
unicode = 110;
},
{
glyphname = o;
lastChange = "2023-11-29 08:50:01 +0000";
layers = (
{
layerId = m01;
shapes = (
{
closed = 1;
nodes = (
(289,45,o),
(283,155,o),
(283,291,c),
(283,428,o),
(289,538,o),
(298,538,c),
(307,538,o),
(313,428,o),
(313,291,c),
(313,155,o),
(307,45,o),
(298,45,c)
);
},
{
closed = 1;
nodes = (
(150,600,o),
(0,461,o),
(0,291,c),
(0,122,o),
(150,-17,o),
(298,-17,c),
(447,-17,o),
(596,122,o),
(596,291,c),
(596,461,o),
(447,600,o),
(298,600,c)
);
}
);
width = 596;
}
);
unicode = 111;
},
{
glyphname = s;
lastChange = "2023-11-29 06:47:44 +0000";
layers = (
{
layerId = m01;
shapes = (
{
closed = 1;
nodes = (
(413,322,o),
(357,332,o),
(312,342,cs),
(298,347,o),
(267,349,o),
(258,362,cs),
(237,397,o),
(246,558,o),
(253,558,cs),
(257,558,o),
(261,473,o),
(265,394,cs),
(266,375,o),
(275,364,o),
(294,364,cs),
(461,364,ls),
(481,364,o),
(492,376,o),
(487,397,cs),
(455,498,o),
(359,600,o),
(253,600,cs),
(166,600,o),
(65,526,o),
(31,440,cs),
(6,378,o),
(61,344,o),
(110,328,cs),
(154,310,o),
(202,305,o),
(246,287,cs),
(257,283,o),
(267,279,o),
(267,263,cs),
(267,101,o),
(261,35,o),
(253,35,cs),
(246,35,o),
(246,159,o),
(246,253,cs),
(246,273,o),
(235,284,o),
(217,284,cs),
(38,286,ls),
(20,286,o),
(8,273,o),
(11,253,cs),
(31,133,o),
(154,-11,o),
(253,-11,cs),
(319,-11,o),
(378,28,o),
(419,78,cs),
(461,122,o),
(510,199,o),
(474,261,cs),
(467,274,o),
(460,286,o),
(449,292,cs)
);
}
);
width = 500;
}
);
unicode = 115;
},
